<mxfile host="drawio-plugin" modified="2021-05-19T12:04:23.625Z" agent="5.0 (Windows NT 6.2; Win64; x64) AppleWebKit/537.36 (KHTML, like Gecko) Chrome/87.0.4280.141 Safari/537.36" version="14.6.6" etag="YbxslvIrkPaPNbsGIA75" type="embed"><diagram id="Bhf-CeLitplspndWEUKO" name="Page-1"><mxGraphModel dx="1277" dy="431" grid="1" gridSize="10" guides="1" tooltips="1" connect="1" arrows="1" fold="1" page="1" pageScale="1" pageWidth="850" pageHeight="1100" math="0" shadow="0"><root><mxCell id="0"/><mxCell id="1" parent="0"/><mxCell id="3" value="AbstractExpression" style="swimlane;fontStyle=1;align=center;verticalAlign=top;childLayout=stackLayout;horizontal=1;startSize=26;horizontalStack=0;resizeParent=1;resizeParentMax=0;resizeLast=0;collapsible=1;marginBottom=0;" vertex="1" parent="1"><mxGeometry x="330" y="70" width="160" height="60" as="geometry"/></mxCell><mxCell id="5" value="" style="line;strokeWidth=1;fillColor=none;align=left;verticalAlign=middle;spacingTop=-1;spacingLeft=3;spacingRight=3;rotatable=0;labelPosition=right;points=[];portConstraint=eastwest;" vertex="1" parent="3"><mxGeometry y="26" width="160" height="8" as="geometry"/></mxCell><mxCell id="6" value="+ interpret()" style="text;strokeColor=none;fillColor=none;align=left;verticalAlign=top;spacingLeft=4;spacingRight=4;overflow=hidden;rotatable=0;points=[[0,0.5],[1,0.5]];portConstraint=eastwest;" vertex="1" parent="3"><mxGeometry y="34" width="160" height="26" as="geometry"/></mxCell><mxCell id="7" value="TerminalExpression" style="swimlane;fontStyle=1;align=center;verticalAlign=top;childLayout=stackLayout;horizontal=1;startSize=26;horizontalStack=0;resizeParent=1;resizeParentMax=0;resizeLast=0;collapsible=1;marginBottom=0;" vertex="1" parent="1"><mxGeometry x="250" y="210" width="160" height="60" as="geometry"/></mxCell><mxCell id="9" value="" style="line;strokeWidth=1;fillColor=none;align=left;verticalAlign=middle;spacingTop=-1;spacingLeft=3;spacingRight=3;rotatable=0;labelPosition=right;points=[];portConstraint=eastwest;" vertex="1" parent="7"><mxGeometry y="26" width="160" height="8" as="geometry"/></mxCell><mxCell id="10" value="+ interpret()" style="text;strokeColor=none;fillColor=none;align=left;verticalAlign=top;spacingLeft=4;spacingRight=4;overflow=hidden;rotatable=0;points=[[0,0.5],[1,0.5]];portConstraint=eastwest;" vertex="1" parent="7"><mxGeometry y="34" width="160" height="26" as="geometry"/></mxCell><mxCell id="11" value="NonterminalExpression" style="swimlane;fontStyle=1;align=center;verticalAlign=top;childLayout=stackLayout;horizontal=1;startSize=26;horizontalStack=0;resizeParent=1;resizeParentMax=0;resizeLast=0;collapsible=1;marginBottom=0;" vertex="1" parent="1"><mxGeometry x="410" y="210" width="160" height="60" as="geometry"/></mxCell><mxCell id="12" value="" style="line;strokeWidth=1;fillColor=none;align=left;verticalAlign=middle;spacingTop=-1;spacingLeft=3;spacingRight=3;rotatable=0;labelPosition=right;points=[];portConstraint=eastwest;" vertex="1" parent="11"><mxGeometry y="26" width="160" height="8" as="geometry"/></mxCell><mxCell id="13" value="+ interpret()" style="text;strokeColor=none;fillColor=none;align=left;verticalAlign=top;spacingLeft=4;spacingRight=4;overflow=hidden;rotatable=0;points=[[0,0.5],[1,0.5]];portConstraint=eastwest;" vertex="1" parent="11"><mxGeometry y="34" width="160" height="26" as="geometry"/></mxCell><mxCell id="20" style="edgeStyle=orthogonalEdgeStyle;rounded=0;orthogonalLoop=1;jettySize=auto;html=1;entryX=0;entryY=0.5;entryDx=0;entryDy=0;" edge="1" parent="1" source="14" target="15"><mxGeometry relative="1" as="geometry"/></mxCell><mxCell id="21" style="edgeStyle=orthogonalEdgeStyle;rounded=0;orthogonalLoop=1;jettySize=auto;html=1;exitX=0;exitY=0.5;exitDx=0;exitDy=0;entryX=0;entryY=0.5;entryDx=0;entryDy=0;" edge="1" parent="1" source="14" target="6"><mxGeometry relative="1" as="geometry"/></mxCell><mxCell id="14" value="«interface»&lt;br&gt;&lt;b&gt;Client&lt;/b&gt;" style="html=1;" vertex="1" parent="1"><mxGeometry x="250" y="300" width="85" height="60" as="geometry"/></mxCell><mxCell id="15" value="Context" style="html=1;" vertex="1" parent="1"><mxGeometry x="500" y="300" width="70" height="60" as="geometry"/></mxCell><mxCell id="16" value="Extends" style="endArrow=block;endSize=16;endFill=0;html=1;exitX=0.5;exitY=1;exitDx=0;exitDy=0;exitPerimeter=0;entryX=0.5;entryY=0;entryDx=0;entryDy=0;" edge="1" parent="1" source="6" target="7"><mxGeometry width="160" relative="1" as="geometry"><mxPoint x="175" y="180" as="sourcePoint"/><mxPoint x="335" y="180" as="targetPoint"/><Array as="points"><mxPoint x="410" y="160"/><mxPoint x="330" y="160"/></Array></mxGeometry></mxCell><mxCell id="17" value="Extends" style="endArrow=block;endSize=16;endFill=0;html=1;exitX=0.5;exitY=1;exitDx=0;exitDy=0;exitPerimeter=0;entryX=0.5;entryY=0;entryDx=0;entryDy=0;" edge="1" parent="1" source="6" target="11"><mxGeometry width="160" relative="1" as="geometry"><mxPoint x="485" y="160" as="sourcePoint"/><mxPoint x="645" y="160" as="targetPoint"/><Array as="points"><mxPoint x="410" y="160"/><mxPoint x="490" y="160"/></Array></mxGeometry></mxCell><mxCell id="19" value="" style="endArrow=diamondThin;endFill=1;endSize=24;html=1;exitX=1;exitY=0.5;exitDx=0;exitDy=0;entryX=0.75;entryY=0;entryDx=0;entryDy=0;" edge="1" parent="1" source="6" target="11"><mxGeometry width="160" relative="1" as="geometry"><mxPoint x="685" y="260" as="sourcePoint"/><mxPoint x="845" y="260" as="targetPoint"/><Array as="points"><mxPoint x="530" y="117"/></Array></mxGeometry></mxCell></root></mxGraphModel></diagram></mxfile>